# xmcd
# 
# Track frame offsets:
#     200
#     21142
#     37577
#     54575
# 
# Disc length: 986
# 
# Revision: 1
# Processed by: cddbd v1.5.2PL0 Copyright (c) Steve Scherf et al.
# Submitted via: BonkEnc v1.0.8
# 
DISCID=2303d804
DTITLE=Various Artist - DREAM WARRIORS and GANG STARR - FOLLOW ME NOT
DYEAR=2004
DGENRE=Country
TTITLE0=Dream Warriors - Follow Me Not (Ultimatum Remix)
TTITLE1=Dream Warriors - I Lost my Ignorance (Gang Starr Remix)
TTITLE2=Dream Warriors and Gang Starr - I Lost my Ignorance (Original Mix)
TTITLE3=Dream Warriors and Gang Starr - I Lost my Ignorance (Tim Bran Remix)
EXTD=
EXTT0=
EXTT1=
EXTT2=
EXTT3=
PLAYORDER=
